<svg xmlns="http://www.w3.org/2000/svg" width="212.00014mm" height="78.057327mm" viewBox="0 0 212.00014 78.057327"><path d="m5.4 65.826 83.917.149c1.172 0 2.219-.173 2.219 2.333l-.104 27.556H3.282V68.206c0-1.236.119-2.38 2.118-2.38z" style="fill:#fff" transform="matrix(2.36178 0 0 1.93118 -6.073 -124.975)"/><path d="M0 0v-50.192" style="fill:none;stroke:#231f20;stroke-width:2.559;stroke-linecap:round;stroke-linejoin:round;stroke-miterlimit:4;stroke-dasharray:none;stroke-opacity:1" transform="matrix(1.14802 0 0 -1.14802 132.65 2.316)"/><path d="M0 0a3.559 3.559 0 0 0 3.551 3.556h172.445A3.558 3.558 0 0 0 179.548 0v-45.187H0Zm175.996 6.113H3.551A6.11 6.11 0 0 1-2.56 0V-61.88h184.665v15.337c.002.026 0 .05 0 .077V0a6.11 6.11 0 0 1-6.109 6.113" style="fill:#231f20;fill-opacity:1;fill-rule:nonzero;stroke:none" transform="matrix(1.14802 0 0 -1.14802 2.939 7.018)"/><path d="M106.242 135.376h2.848v.611h-2.848zm2.51 1.897c.16.08.338.146.534.2.222.058.456.107.704.14.246.036.481.066.71.088-.076.085-.16.193-.256.32-.094.127-.173.239-.24.337-.2-.03-.414-.065-.642-.11a6.579 6.579 0 0 1-.68-.175 4.29 4.29 0 0 1-.702-.29 1.671 1.671 0 0 1-.5-.384c-.121.125-.27.24-.455.34a3.789 3.789 0 0 1-.609.27c-.228.082-.467.15-.72.207-.25.057-.503.104-.758.142a2.824 2.824 0 0 0-.239-.325c-.09-.107-.18-.22-.272-.332.255-.022.502-.054.747-.092.244-.038.47-.083.682-.136.211-.061.397-.13.557-.212a1.05 1.05 0 0 0 .36-.278h-1.964v-.616h5.31v.616h-1.958c.097.118.229.212.39.29m-.609 2.051v.56h2.054v1.69h-4.09v.477h4.269v.635h-5.228v-1.706h4.108v-.471h-4.108v-.626h2.03v-.559h-2.883v-.656h6.771v.656z" style="fill:#231f20;fill-opacity:1;fill-rule:nonzero;stroke:none;stroke-width:1.14802" transform="translate(52.228 -94.269)"/><path d="M0 0v3.127h-1.193v.666H0v2.523h.766V0Zm-3.607 6.211h1.953v-.637h-1.953Zm1.518-2.813c.075-.226.182-.439.316-.632.144-.207.313-.393.502-.555.194-.162.391-.293.6-.391a4.81 4.81 0 0 1-.29-.277l-.247-.256a4.242 4.242 0 0 0-.399.291c-.136.11-.269.229-.402.36-.111.123-.22.257-.325.404a3.447 3.447 0 0 0-.282.474 3.11 3.11 0 0 0-.27-.492 3.487 3.487 0 0 0-.352-.455 3.463 3.463 0 0 0-.394-.379 6.376 6.376 0 0 0-.456-.351 5.87 5.87 0 0 1-.286.248c-.117.092-.23.187-.342.275.236.127.456.276.659.445.205.17.384.358.536.559.151.209.268.434.353.674.084.24.128.498.128.777v.262h-1.314v.666h3.458v-.666h-1.311v-.262c0-.25.04-.488.118-.719" style="fill:#231f20;fill-opacity:1;fill-rule:nonzero;stroke:none" transform="matrix(1.14802 0 0 -1.14802 169.326 48.467)"/><path d="M0 0h1.675l.021 1.789H-.03Zm-1.627-.658V0h.855l-.021 1.789h-.694v.666h4.638v-.666h-.707L2.425 0h.87v-.658zm-.488-2.221v.666h1.393v1.279h.755v-1.279H1.66v1.285h.741v-1.285h1.397v-.666z" style="fill:#231f20;fill-opacity:1;fill-rule:nonzero;stroke:none" transform="matrix(1.14802 0 0 -1.14802 173.558 44.357)"/><path d="M131.582 135.484h.88v7.251h-.88zm-2.514 2.885c.08.3.19.579.332.835.171.296.382.562.628.798.25.235.525.448.832.64a15.36 15.36 0 0 0-.365.31c-.12.104-.213.198-.293.28a4.799 4.799 0 0 1-.45-.344 5.92 5.92 0 0 1-.475-.46 4.201 4.201 0 0 1-.44-.556 4.106 4.106 0 0 1-.338-.597 2.235 2.235 0 0 1-.276.58 5.245 5.245 0 0 1-1.447 1.538 6.162 6.162 0 0 0-.74-.576c.331-.201.625-.425.88-.676.253-.253.463-.53.635-.834.155-.285.274-.595.354-.926.08-.33.123-.68.123-1.054v-1.552h.915v1.599c0 .363.043.696.125.995" style="fill:#231f20;fill-opacity:1;fill-rule:nonzero;stroke:none;stroke-width:1.14802" transform="translate(52.228 -94.269)"/><path d="M0 0h-31.394c-.981 0-1.772.791-1.772 1.771v8.131H1.771V1.771A1.77 1.77 0 0 0 0 0m0 35.393h-31.394a3.01 3.01 0 0 1-3.009-3.016V1.771a3.011 3.011 0 0 1 3.009-3.009H0a3.01 3.01 0 0 1 3.009 3.009v30.606A3.014 3.014 0 0 1 0 35.393" style="fill:#231f20;fill-opacity:1;fill-rule:nonzero;stroke:none" transform="matrix(1.14802 0 0 -1.14802 189.17 50.632)"/><path d="M0 0c-.597 4.344-2.487 6.605-4.237 7.684a4.461 4.461 0 0 1-3.103 7.67 4.462 4.462 0 0 1-4.461-4.463c0-1.256.527-2.395 1.363-3.207-1.749-1.079-3.642-3.342-4.238-7.686a11.81 11.81 0 0 1-.137-1.74c0-.526.042-1.014.128-1.473a1.257 1.257 0 0 1 1.233-1.012h12.228c.605 0 1.12.428 1.231 1.022.085.447.131.934.131 1.463C.138-1.205.091-.625 0 0" style="fill:#fff;fill-opacity:1;fill-rule:nonzero;stroke:none" transform="matrix(1.14802 0 0 -1.14802 179.423 31.298)"/><path d="M0 0h-5.75v7.863h5.64c.781 0 1.519-.054 2.211-.16.66-.101 1.224-.295 1.703-.572.455-.27.808-.631 1.084-1.117.252-.455.404-1.102.404-1.955 0-.707-.1-1.305-.287-1.805a2.838 2.838 0 0 0-.858-1.211c-.395-.328-.921-.59-1.601-.77C1.871.094 1.018-.002 0 0m8.96 7.982a6.613 6.613 0 0 1-2.307 2.426c-.949.586-2.033.988-3.244 1.215-1.187.221-2.422.33-3.703.33h-9.31a.566.566 0 0 1-.565-.566v-24.848c0-.15.058-.293.164-.398a.56.56 0 0 1 .401-.168h3.29c.149 0 .291.058.397.168a.549.549 0 0 1 .167.398v9.369h5.678c3.122 0 5.578.662 7.308 2.072C8.972-.605 9.829 1.51 9.822 4.133c0 1.512-.272 2.803-.862 3.849" style="fill:#231f20;fill-opacity:1;fill-rule:nonzero;stroke:none" transform="matrix(1.14802 0 0 -1.14802 58.165 29.748)"/><path d="M0 0a.574.574 0 0 1-.403.166h-14.692v7.297h13.168a.567.567 0 0 1 .569.566v2.957a.583.583 0 0 1-.166.401.58.58 0 0 1-.403.166h-13.168v6.414H-.952c.151 0 .296.056.4.166a.55.55 0 0 1 .168.4v2.957a.579.579 0 0 1-.166.401.579.579 0 0 1-.402.166H-18.95a.575.575 0 0 1-.401-.166.574.574 0 0 1-.165-.401V-3.357c0-.151.059-.293.165-.399a.56.56 0 0 1 .401-.168H-.403A.56.56 0 0 1 0-3.756a.561.561 0 0 1 .165.399v2.959A.573.573 0 0 1 0 0" style="fill:#231f20;fill-opacity:1;fill-rule:nonzero;stroke:none" transform="matrix(1.14802 0 0 -1.14802 94.42 41.347)"/><path d="M0 0a.575.575 0 0 1-.402.166h-3.159A.588.588 0 0 1-3.964 0a.584.584 0 0 1-.164-.4v-17.746L-16.068-.088a.578.578 0 0 1-.478.254h-3.394a.568.568 0 0 1-.568-.566v-24.848c0-.15.058-.293.167-.398a.554.554 0 0 1 .401-.168h3.124c.149 0 .295.058.399.168a.559.559 0 0 1 .165.398v17.719l11.999-18.032a.564.564 0 0 1 .472-.253h3.379c.151 0 .297.058.402.168a.564.564 0 0 1 .166.398V-.4A.577.577 0 0 1 0 0" style="fill:#231f20;fill-opacity:1;fill-rule:nonzero;stroke:none" transform="matrix(1.14802 0 0 -1.14802 121.084 16.217)"/><path d="M0 0c5.12-.008 9.349-3.768 10.099-8.68 1.747-.252 3.177-.705 4.318-1.207-.01.332-.029.494-.029.494l-.004.006C13.95-1.814 7.678 4.188 0 4.189c-7.614-.001-13.842-5.904-14.371-13.382.026-.493.274-1.428 1.675-2.114l-.084.022c1.418-.766 3.625-1.662 6.23-1.668 1.94 0 4.523.515 6.662 1.959C1.61-9.982 3.321-9.033 5.177-9.029a8.378 8.378 0 0 0 1.708-.176c.157-.035.313-.068.467-.111 0 0 .525-.291.63.052.06.19 0 .356-.063.467-.18.305-.646.602-.938.789a4.59 4.59 0 0 1-1.339.578c-1.083.282-2.246.201-3.333-.019A13.806 13.806 0 0 1-.87-8.518c-1.746-.83-3.58-1.136-4.698-1.136-1.822.008-2.916.793-3.611 1.597a5.151 5.151 0 0 0-.579.838C-8.472-3.043-4.599-.008 0 0" style="fill:#00b193;fill-opacity:1;fill-rule:nonzero;stroke:none" transform="matrix(1.14802 0 0 -1.14802 26.803 18.616)"/><path d="M0 0c-.011-.305-.031-.547-.039-.66h-.008c-.385-5.303-4.796-9.483-10.195-9.492-4.41.007-8.018 2.437-9.443 6.318-.999.225-3.385.863-4.878 2.068 0-.002-.002-.005-.002-.011.73-7.28 6.852-12.561 14.323-12.561 7.492 0 13.646 5.715 14.344 13.025C2.715-.602 1.205-.211 0 0" style="fill:#231f20;fill-opacity:1;fill-rule:nonzero;stroke:none" transform="matrix(1.14802 0 0 -1.14802 38.63 30.504)"/><path d="M0 0a.069.069 0 0 1-.049.02h-1.135A.065.065 0 0 1-1.23 0a.07.07 0 0 1-.022-.049v-9.885a.07.07 0 0 1 .022-.048.063.063 0 0 1 .046-.018h1.135c.02 0 .035.008.049.02a.066.066 0 0 1 .021.046v9.885A.073.073 0 0 1 0 0m-1.646-6.223a30.957 30.957 0 0 0-1.4-.189 14.739 14.739 0 0 0-1.647-.111h-1.395v1.878h3.201c.02 0 .035.008.049.022.012.012.02.029.02.047v4.017a.07.07 0 0 1-.02.049.076.076 0 0 1-.049.02H-7.28a.064.064 0 0 1-.049-.02.067.067 0 0 1-.021-.049V-1.6c0-.015.008-.035.021-.046a.066.066 0 0 1 .049-.022h3.201V-3.49H-7.28a.07.07 0 0 1-.049-.018.07.07 0 0 1-.021-.049v-4.095c0-.02.008-.036.021-.049a.074.074 0 0 1 .049-.02c.007 0 .346.006 1.02.012.672.008 1.089.012 1.25.012.619.013 1.258.056 1.916.127.655.07 1.145.131 1.469.183a.068.068 0 0 1 .059.067v1.029c0 .02-.01.039-.024.053a.085.085 0 0 1-.056.015m-7.075.787h-8.768a.067.067 0 0 1-.049-.021.064.064 0 0 1-.019-.049v-1.029c0-.018.006-.033.019-.047a.068.068 0 0 1 .049-.022h3.748v-3.33c0-.017.007-.033.02-.046a.07.07 0 0 1 .047-.02h1.157c.018 0 .035.008.048.02a.06.06 0 0 1 .02.046v3.332h3.728c.018 0 .034.006.048.02a.066.066 0 0 1 .019.047v1.029c0 .02-.006.037-.019.049a.073.073 0 0 1-.048.021m-7.697 1.102h6.814c.018 0 .036.008.047.02a.067.067 0 0 1 .022.048v1.041a.066.066 0 0 1-.02.047.07.07 0 0 1-.049.022h-5.63v2.83a.074.074 0 0 1-.02.049.069.069 0 0 1-.049.019h-1.115a.066.066 0 0 1-.047-.019.066.066 0 0 1-.02-.049v-3.94c0-.017.006-.035.02-.048a.071.071 0 0 1 .047-.02m-1.766.115h-4.284v1.801a.071.071 0 0 1-.019.049.073.073 0 0 1-.048.019h-1.168a.075.075 0 0 1-.049-.019.067.067 0 0 1-.019-.049v-1.801h-3.18a.067.067 0 0 1-.048-.021.062.062 0 0 1-.021-.047v-1.041c0-.018.008-.035.021-.049a.069.069 0 0 1 .048-.019h8.767c.018 0 .037.007.049.019.012.014.02.031.02.049v1.041a.07.07 0 0 1-.02.047.069.069 0 0 1-.049.021m-2.791-4.638c-.402-.168-.935-.254-1.603-.254-.682 0-1.216.086-1.602.254-.383.169-.555.412-.559.761.003.319.175.551.559.725.386.172.92.26 1.602.26.668 0 1.201-.088 1.603-.26.399-.176.577-.408.579-.725-.002-.347-.18-.592-.579-.761m1.039 2.259c-.619.387-1.503.575-2.652.575-1.137 0-2.014-.188-2.635-.575-.615-.382-.937-.892-.934-1.507-.001-.61.321-1.116.94-1.502.623-.391 1.503-.581 2.639-.582 1.149.001 2.033.191 2.648.582.614.386.933.892.932 1.502.001.615-.32 1.125-.938 1.507m-6.08 5.186h5.671c-.01-.359-.04-.736-.093-1.129-.055-.42-.115-.787-.177-1.102a.058.058 0 0 1 .013-.056.066.066 0 0 1 .052-.026l1.125-.011a.07.07 0 0 1 .068.056c.084.489.158 1.006.222 1.553.063.549.097 1.156.106 1.822a.066.066 0 0 1-.022.049.067.067 0 0 1-.047.02h-6.918a.07.07 0 0 1-.047-.02.065.065 0 0 1-.021-.049v-1.039c0-.017.008-.035.021-.049a.073.073 0 0 1 .047-.019m-9.461 0h5.67a10.678 10.678 0 0 0-.093-1.129c-.055-.42-.116-.787-.178-1.102a.059.059 0 0 1 .015-.056.066.066 0 0 1 .051-.026l1.125-.011a.07.07 0 0 1 .069.056c.084.489.157 1.006.221 1.553.062.549.098 1.156.105 1.822a.071.071 0 0 1-.02.049.07.07 0 0 1-.048.02h-6.917a.07.07 0 0 1-.07-.069v-1.039a.08.08 0 0 1 .021-.049.079.079 0 0 1 .049-.019m5.039-7.445c-.4-.168-.935-.254-1.602-.254-.681 0-1.216.086-1.603.254-.382.169-.554.412-.558.761.002.319.175.551.559.725.386.172.921.26 1.602.26.667 0 1.201-.088 1.602-.26.401-.176.578-.408.58-.725-.002-.347-.181-.592-.58-.761m1.042 2.259c-.62.387-1.504.575-2.655.575-1.137 0-2.012-.188-2.633-.575-.617-.382-.937-.892-.935-1.507-.002-.61.321-1.116.941-1.502.622-.391 1.502-.581 2.638-.582 1.149.001 2.032.191 2.649.582.612.386.932.892.93 1.502.002.615-.319 1.125-.935 1.507m1.75 2.379h-4.284v1.801a.071.071 0 0 1-.019.049.073.073 0 0 1-.049.019h-1.168a.07.07 0 0 1-.048-.019c-.013-.012-.018-.031-.018-.049v-1.801h-3.182a.064.064 0 0 1-.047-.021.062.062 0 0 1-.021-.047v-1.041c0-.018.008-.035.021-.049a.067.067 0 0 1 .047-.019h8.768c.019 0 .037.007.048.019.014.014.02.031.02.049v1.041a.061.061 0 0 1-.02.047.063.063 0 0 1-.048.021" style="fill:#fff;fill-opacity:1;fill-rule:nonzero;stroke:none" transform="matrix(1.14802 0 0 -1.14802 59.983 62.608)"/><path d="M0 0c.457-.187 1.06-.28 1.809-.28.74 0 1.343.093 1.805.28.462.188.693.466.693.84 0 .354-.231.625-.693.808-.462.185-1.065.278-1.805.278-.749 0-1.352-.093-1.809-.278-.459-.183-.689-.454-.689-.808 0-.374.23-.652.689-.84m5.23 7.781a12.05 12.05 0 0 0-.129-1.632 15.824 15.824 0 0 0-.263-1.414h-.847c.076.318.149.695.21 1.131.067.441.1.845.106 1.214h-5.874v.701zM-.753-.435c-.6.339-.898.761-.898 1.262 0 .506.298.93.898 1.259.601.336 1.454.504 2.562.504 1.115 0 1.971-.168 2.567-.504.596-.329.894-.753.894-1.259 0-.501-.298-.923-.894-1.262-.596-.338-1.452-.508-2.567-.508-1.108 0-1.961.17-2.562.508m-1.841 3.834v.703H.804v1.86h.899v-1.86h4.521v-.703Z" style="fill:#fff;fill-opacity:1;fill-rule:nonzero;stroke:none" transform="matrix(1.14802 0 0 -1.14802 72.821 72.267)"/><path d="M0 0c.457-.187 1.061-.28 1.81-.28.74 0 1.339.093 1.805.28.46.188.693.466.693.84 0 .354-.233.625-.693.808-.466.185-1.065.278-1.805.278-.749 0-1.353-.093-1.81-.278-.46-.183-.69-.454-.69-.808C-.69.466-.46.188 0 0m5.229 7.781c-.007-.56-.05-1.103-.127-1.632a16.119 16.119 0 0 0-.266-1.414h-.847c.078.318.15.695.212 1.131.065.441.1.845.107 1.214h-5.876v.701zM-.752-.435c-.602.339-.903.761-.903 1.262 0 .506.301.93.903 1.259.598.336 1.453.504 2.562.504 1.113 0 1.969-.168 2.566-.504.595-.329.895-.753.895-1.259 0-.501-.3-.923-.895-1.262-.597-.338-1.453-.508-2.566-.508-1.109 0-1.964.17-2.562.508m-1.845 3.834v.703h3.4v1.86h.9v-1.86h4.522v-.703Z" style="fill:#fff;fill-opacity:1;fill-rule:nonzero;stroke:none" transform="matrix(1.14802 0 0 -1.14802 83.761 72.267)"/><path d="M0 0v5.255h-2.033v.739H0v2.812h.899V0Zm-3.482 5.443c.104-.39.259-.754.465-1.092a4.27 4.27 0 0 1 .835-.995c.34-.299.733-.575 1.187-.824a3.711 3.711 0 0 1-.355-.286 5.882 5.882 0 0 1-.311-.3 7.085 7.085 0 0 0-1.356 1.09 6.187 6.187 0 0 0-.63.777 4.63 4.63 0 0 0-.461.845 3.748 3.748 0 0 0-.378-.822 5.975 5.975 0 0 0-.575-.8 6.49 6.49 0 0 0-.715-.74 5.66 5.66 0 0 0-.758-.584 3.11 3.11 0 0 1-.359.279 6.92 6.92 0 0 1-.434.283c.438.25.832.536 1.181.858.35.317.637.669.862 1.052.233.382.412.795.535 1.237.124.441.186.912.186 1.414v.711h-2.054v.704h5.071v-.704h-2.097v-.839c0-.446.055-.871.161-1.264" style="fill:#fff;fill-opacity:1;fill-rule:nonzero;stroke:none" transform="matrix(1.14802 0 0 -1.14802 100.132 73.144)"/><path d="M0 0v-2.491h-.877v5.303H0V.732h1.333V0Zm-.877-6.055v2.436h-5.4v.711H0v-3.147zM-4.098.509c.127-.279.302-.535.519-.765a3.29 3.29 0 0 1 .811-.636c.313-.178.637-.317.969-.424a5.236 5.236 0 0 1-.583-.603 6.898 6.898 0 0 0-.682.327 4.83 4.83 0 0 0-.704.464c-.198.152-.38.319-.55.493-.17.179-.315.37-.435.577a2.294 2.294 0 0 0-.339-.595 4.017 4.017 0 0 0-.498-.555 5.372 5.372 0 0 0-.724-.545 7.855 7.855 0 0 0-.801-.434 3.257 3.257 0 0 1-.323.268 9.724 9.724 0 0 1-.386.284c.394.16.763.351 1.111.572.346.222.637.484.879.789.189.235.34.501.451.794.11.291.164.613.164.956v.228h-1.896v.701h4.713v-.701h-1.885v-.26c0-.341.062-.655.189-.935" style="fill:#fff;fill-opacity:1;fill-rule:nonzero;stroke:none" transform="matrix(1.14802 0 0 -1.14802 111.653 66.263)"/><path d="M69.162 158.339H63.68v1.522h5.482zm-6.468-.75h7.462v3.023h-7.462zm4.242 4.636v1.023h3.211v2.372h-6.31v.963h6.552v.738h-7.668v-2.415h6.32v-.912h-6.32v-.746h3.17v-1.023h-4.52v-.765h10.124v.765z" style="fill:#fff;fill-opacity:1;fill-rule:nonzero;stroke:none;stroke-width:1.14802" transform="translate(52.228 -94.269)"/><path d="M0 0v-3.416h1.418v-.742H0v-4.658h-.89V0Zm-4.014-3.361c.108-.392.264-.757.467-1.094.227-.361.506-.695.84-.995a6.39 6.39 0 0 1 1.192-.823 3.805 3.805 0 0 1-.352-.29c-.125-.11-.23-.21-.315-.296a6.994 6.994 0 0 0-1.365 1.088 6.544 6.544 0 0 0-.631.776 4.87 4.87 0 0 0-.461.847 3.36 3.36 0 0 0-.367-.82 6.801 6.801 0 0 0-.584-.803 7.414 7.414 0 0 0-.709-.742 5.891 5.891 0 0 0-.753-.584 5.58 5.58 0 0 1-.803.565c.445.25.834.536 1.174.853.339.314.627.663.869 1.048.23.378.411.795.535 1.239.123.446.183.917.183 1.422v.71h-2.042v.704h5.071v-.704H-4.17v-.839c0-.451.051-.871.156-1.262" style="fill:#fff;fill-opacity:1;fill-rule:nonzero;stroke:none" transform="matrix(1.14802 0 0 -1.14802 136.97 63.035)"/><path d="M0 0c.478-.235 1.067-.352 1.772-.352.707 0 1.296.113 1.767.342.469.23.703.538.703.934 0 .418-.234.743-.701.978-.463.239-1.054.36-1.769.36-.71 0-1.303-.12-1.776-.352-.474-.235-.709-.555-.709-.967C-.713.55-.475.234 0 0m-.729-.494c-.609.388-.917.865-.917 1.437 0 .579.304 1.058.912 1.454.609.389 1.443.585 2.506.585 1.076 0 1.916-.196 2.523-.583.606-.391.91-.874.91-1.456 0-.566-.304-1.045-.91-1.429-.607-.389-1.447-.588-2.523-.588-1.055 0-1.891.19-2.501.58m4.602-2.159v-3.091h-.901v3.091H.631v-3.022H-.27v3.005h-2.361v.727H6.19v-.71z" style="fill:#fff;fill-opacity:1;fill-rule:nonzero;stroke:none" transform="matrix(1.14802 0 0 -1.14802 142.14 66.553)"/><path d="M106.011 157.303h1.022v10.114h-1.022zm-6.136 6.232c.301.608.725.914 1.276.914.55 0 .97-.306 1.251-.914.282-.604.424-1.308.424-2.106 0-.771-.142-1.46-.424-2.074-.281-.606-.7-.912-1.251-.912-.551 0-.975.307-1.276.919-.3.615-.45 1.305-.45 2.067 0 .798.15 1.502.45 2.106m-.59-5.018c.572-.612 1.188-.914 1.854-.914.682 0 1.3.302 1.859.92.559.614.84 1.587.84 2.921 0 1.308-.275 2.273-.829 2.906-.55.63-1.174.941-1.87.941-.689 0-1.314-.31-1.872-.936-.56-.626-.84-1.598-.84-2.91 0-1.342.286-2.32.858-2.928" style="fill:#fff;fill-opacity:1;fill-rule:nonzero;stroke:none;stroke-width:1.14802" transform="translate(52.228 -94.269)"/><path d="M0 0a4.692 4.692 0 0 0-.557-.076 8.26 8.26 0 0 0-1.205 0 6.63 6.63 0 0 0-.524.065v-1.118H0Zm-2.928.847c.442-.2 1.026-.295 1.753-.295.721 0 1.306.094 1.761.285.457.186.684.43.684.733 0 .313-.227.564-.684.759-.455.194-1.04.293-1.761.293-.72 0-1.304-.092-1.747-.283-.444-.188-.667-.439-.667-.747 0-.302.221-.553.661-.745m-.032-5.726c.448-.178 1.048-.267 1.796-.267.732 0 1.327.089 1.777.267.453.179.679.42.679.733 0 .329-.226.583-.679.761-.45.18-1.045.267-1.777.267-.748 0-1.348-.087-1.796-.267-.448-.178-.671-.428-.671-.752 0-.314.223-.563.671-.742m-.763 1.928c.598.305 1.45.458 2.559.458 1.114 0 1.969-.156 2.562-.471.593-.312.89-.709.89-1.182 0-.46-.297-.849-.886-1.17-.589-.314-1.444-.471-2.566-.471-1.109 0-1.961.157-2.559.471-.595.321-.893.712-.893 1.179 0 .483.298.874.893 1.186m-1.847 1.12v.702h2.404V.174c-.451.155-.794.354-1.027.6-.235.249-.348.519-.348.808 0 .469.294.863.882 1.189.589.322 1.418.483 2.484.483 1.087 0 1.927-.166 2.519-.495.594-.33.888-.728.888-1.195 0-.286-.113-.547-.341-.793C1.661.525 1.32.329.868.174v-1.303h2.383v-.702z" style="fill:#fff;fill-opacity:1;fill-rule:nonzero;stroke:none" transform="matrix(1.14802 0 0 -1.14802 167.393 66.706)"/><path d="M0 0v4.375h-1.578v.743H0v3.691h.891V0Zm-5.602 8.606h2.857v-.691h-2.857zm.35-5.919c.262-.273.627-.411 1.102-.411.458 0 .818.139 1.08.414.259.278.393.615.393 1.01 0 .389-.134.723-.393.995-.262.275-.622.409-1.08.409-.475 0-.84-.134-1.102-.409a1.383 1.383 0 0 1-.391-.995c0-.399.129-.738.391-1.013m-.644 2.495c.443.418 1.025.626 1.746.626.691 0 1.261-.208 1.71-.626.446-.419.671-.913.671-1.482 0-.552-.225-1.045-.671-1.486-.449-.433-1.019-.651-1.71-.651-.704 0-1.287.215-1.736.644-.452.429-.677.926-.677 1.493 0 .569.221 1.063.667 1.482m-1.03 1.994h5.496V6.46h-5.496z" style="fill:#fff;fill-opacity:1;fill-rule:nonzero;stroke:none" transform="matrix(1.14802 0 0 -1.14802 180.447 73.148)"/><path d="M0 0v-2.642h-.891v5.463H0V.723h1.302V0Zm-.912-6.045v2.272h-5.389v.715H0v-2.987zm-.402 4.212a24.096 24.096 0 0 0-1.54-.188 27.975 27.975 0 0 0-1.87-.117c-.366-.008-.849-.012-1.444-.018a91.487 91.487 0 0 0-.936-.009V.553h3.493v1.248h-3.493v.692h4.36V-.12h-3.504v-1.333l1.631.015c.435.006 1.006.045 1.703.108.699.059 1.233.126 1.6.191z" style="fill:#fff;fill-opacity:1;fill-rule:nonzero;stroke:none" transform="matrix(1.14802 0 0 -1.14802 191.728 66.274)"/></svg>