<svg xmlns="http://www.w3.org/2000/svg" width="1118.8408mm" height="300mm" viewBox="0 0 1118.8408 300"><path d="M0 0c-1.276 2.499-3.704 7.569-3.704 12.755 0 7.419 6.302 10.132 8.291 11.146l-.125 8.412C.113 29.721-6.76 25.016-6.917 14.324-7.016 7.55-3.403 2.215-.785-1.975h1.9A31.072 31.072 0 0 0 0 0" style="fill:#e91d24;fill-opacity:1;fill-rule:nonzero;stroke:none" transform="matrix(4.46638 0 0 -4.46638 214.256 144.322)"/><path d="M0 0c1.276-2.498 3.704-7.569 3.704-12.755 0-7.418-6.302-10.132-8.29-11.146l.124-8.412c4.35 2.592 11.222 7.297 11.379 17.989C7.016-7.55 3.403-2.215.785 1.976h-1.9C-.702 1.293-.322.633 0 0" style="fill:#176fc1;fill-opacity:1;fill-rule:nonzero;stroke:none" transform="matrix(4.46638 0 0 -4.46638 211.994 155.678)"/><path d="M0 0a3.15 3.15 0 0 0-6.3 0A3.15 3.15 0 0 0 0 0" style="fill:#231f20;fill-opacity:1;fill-rule:nonzero;stroke:none" transform="matrix(4.46638 0 0 -4.46638 226.91 149.999)"/><path d="M-216.297 223.671h-18.49v-80.63h18.49z" style="fill:#231f20;fill-opacity:1;fill-rule:nonzero;stroke:none;stroke-width:2.97759" transform="matrix(1.5 0 0 1.5 608.041 -124.4)"/><path d="M0 0c-1.146 3.659-6.066 3.768-6.066 3.768-4.997-.039-6.318-3.72-6.318-3.72l-5.664-17.799-5.521 7.708 9.675 13.509h-7.179l-6.962-9.975s-.361-.705-1.268-.433c0 0-.779.269-.793 1.036l-.009 9.372h-5.943v-27.151h5.943l.009 9.507c.014.767.793 1.036.793 1.036.907.273 1.268-.434 1.268-.434l7.056-10.109h7.182l-.019.026h.11l6.571 20.651c.246.727 1.069.749 1.069.749.948-.015 1.078-.798 1.078-.798l6.431-20.628h6.259z" style="fill:#231f20;fill-opacity:1;fill-rule:nonzero;stroke:none" transform="matrix(4.46638 0 0 -4.46638 161.004 105.481)"/><path d="M0 0h1.634L-.705-3.669l2.661-4.17H.253l-2.442 4.145zm-3.719 0h1.426v-7.839h-1.426z" style="fill:#231f20;fill-opacity:1;fill-rule:nonzero;stroke:none" transform="matrix(4.46638 0 0 -4.46638 360.803 185.65)"/><path d="M0 0c-1.644 0-2.584-1.267-2.584-3.065 0-1.789.94-3.055 2.584-3.055 1.646 0 2.586 1.266 2.586 3.055C2.586-1.267 1.646 0 0 0m0-1.151c.837 0 1.269-.754 1.269-1.902C1.269-4.205.837-4.968 0-4.968s-1.269.763-1.269 1.915c0 1.148.432 1.902 1.269 1.902" style="fill:#231f20;fill-opacity:1;fill-rule:nonzero;stroke:none" transform="matrix(4.46638 0 0 -4.46638 379.992 193.96)"/><path d="m0 0 .016-.023C.271.53.647.893 1.23.893c.141 0 .273-.023.405-.058l.112-1.352a1.81 1.81 0 0 1-.534.095C.536-.422.065-.94.065-2.127v-2.959h-1.316V.753H0Z" style="fill:#231f20;fill-opacity:1;fill-rule:nonzero;stroke:none" transform="matrix(4.46638 0 0 -4.46638 398.974 197.947)"/><path d="M0 0c-.498-.2-1.007-.376-1.542-.376-.849 0-1.497.611-1.497 1.703v.187H.349v.459c0 1.893-1.008 2.691-2.278 2.691-1.626 0-2.425-1.28-2.425-3.065 0-1.789.94-3.056 2.586-3.056.648 0 1.146.082 1.643.222zm-3.039 2.301c.05.764.435 1.366 1.11 1.366.724 0 1.026-.53 1.026-1.366z" style="fill:#231f20;fill-opacity:1;fill-rule:nonzero;stroke:none" transform="matrix(4.46638 0 0 -4.46638 424.72 214.79)"/><path d="M0 0c-.454-.51-2.01-.484-2.01-1.519 0-.564.441-.706.816-.706.255 0 .499.071.74.178L-.66-3.058c-.288-.036-.693-.105-.863-.105-1.055 0-1.739.562-1.739 1.738C-3.262.831-.066.148-.066 1.301c0 .636-.518.718-.864.718-.63 0-1.242-.213-1.814-.495l.103 1.094c.656.2 1.334.34 2.021.34.825 0 1.87-.246 1.87-1.584v-4.395H0Z" style="fill:#231f20;fill-opacity:1;fill-rule:nonzero;stroke:none" transform="matrix(4.46638 0 0 -4.46638 441.302 207.17)"/><path d="M0 0h1.544l.941 2.734H4.91L5.744 0H7.25L4.675 7.839H3Zm2.859 3.983.932 2.62.808-2.62z" style="fill:#231f20;fill-opacity:1;fill-rule:nonzero;stroke:none" transform="matrix(4.46638 0 0 -4.46638 456.616 220.663)"/><path d="M0 0c.442-.223.893-.434 1.354-.434.292 0 .703.153.703.539C2.057 1 .15 1.648.15 3.137c0 .391.149 1.469 1.747 1.469.463 0 .933-.083 1.391-.187l.105-1.199c-.32.165-.855.308-1.214.308-.225 0-.612-.084-.612-.484 0-.75 1.912-1.514 1.912-3.081 0-1.1-1.026-1.477-1.817-1.477-.508 0-1.023.104-1.512.245z" style="fill:#231f20;fill-opacity:1;fill-rule:nonzero;stroke:none" transform="matrix(4.46638 0 0 -4.46638 486.901 214.532)"/><path d="M0 0v-1.153h-1.183v-2.598c0-.586.111-.986.581-.986.237 0 .472.035.696.106l-.151-1.176a3.03 3.03 0 0 0-1.053-.174c-.901 0-1.391.364-1.391 1.514v3.314h-.658V0h.658v1.01l1.318.386V0Z" style="fill:#231f20;fill-opacity:1;fill-rule:nonzero;stroke:none" transform="matrix(4.46638 0 0 -4.46638 516.792 194.582)"/><path d="m0 0 .02-.023C.274.53.649.893 1.234.893c.137 0 .272-.023.401-.058l.114-1.352a1.8 1.8 0 0 1-.536.095C.538-.422.067-.94.067-2.127v-2.959h-1.318V.753H0Z" style="fill:#231f20;fill-opacity:1;fill-rule:nonzero;stroke:none" transform="matrix(4.46638 0 0 -4.46638 523.59 197.947)"/><path d="M0 0c-1.643 0-2.583-1.267-2.583-3.065 0-1.789.94-3.055 2.583-3.055 1.646 0 2.588 1.266 2.588 3.055C2.588-1.267 1.646 0 0 0m0-1.151c.839 0 1.271-.754 1.271-1.902C1.271-4.205.839-4.968 0-4.968c-.835 0-1.267.763-1.267 1.915 0 1.148.432 1.902 1.267 1.902" style="fill:#231f20;fill-opacity:1;fill-rule:nonzero;stroke:none" transform="matrix(4.46638 0 0 -4.46638 541.438 193.96)"/><path d="m0 0 .021-.024C.37.847.989 1.103 1.77 1.103c.987 0 1.841-.457 1.841-1.894v-4.084H2.296v3.712c0 .61-.451.951-.962.951C.453-.212 0-.812 0-2.622v-2.253h-1.314V.964H0Z" style="fill:#231f20;fill-opacity:1;fill-rule:nonzero;stroke:none" transform="matrix(4.46638 0 0 -4.46638 560.712 198.887)"/><path d="M0 0c-1.645 0-2.586-1.267-2.586-3.065 0-1.789.941-3.055 2.586-3.055 1.647 0 2.586 1.266 2.586 3.055C2.586-1.267 1.647 0 0 0m0-1.151c.837 0 1.271-.754 1.271-1.902C1.271-4.205.837-4.968 0-4.968c-.836 0-1.268.763-1.268 1.915 0 1.148.432 1.902 1.268 1.902" style="fill:#231f20;fill-opacity:1;fill-rule:nonzero;stroke:none" transform="matrix(4.46638 0 0 -4.46638 590.232 193.96)"/><path d="m0 0 .021-.022c.28.715.837 1.066 1.485 1.066.629 0 1.193-.293 1.437-1.066.32.763.874 1.066 1.551 1.066.827 0 1.572-.468 1.572-1.538v-4.44h-1.32v3.641c0 .563-.186 1.022-.704 1.022-.848 0-.967-1.09-.967-1.33v-3.333H1.76v3.641c0 .563-.188 1.022-.707 1.022-.843 0-.968-1.09-.968-1.33v-3.333h-1.318V.905H0Z" style="fill:#231f20;fill-opacity:1;fill-rule:nonzero;stroke:none" transform="matrix(4.46638 0 0 -4.46638 609.13 198.625)"/><path d="M0 0c.271-.154.553-.247.855-.247.666 0 .92.821 1.099 1.504L.091 7.227h1.347c.366-1.552.882-3.034 1.173-4.596h.021l1.249 4.596h1.304L2.93.139C2.622-.824 2.162-1.4 1.138-1.4a3.34 3.34 0 0 0-.961.14z" style="fill:#231f20;fill-opacity:1;fill-rule:nonzero;stroke:none" transform="matrix(4.46638 0 0 -4.46638 636.222 226.859)"/><path d="M0 0h1.492L.339 1.455c.386.657.498 1.187.498 2.351H-.346c0-.426-.009-.87-.125-1.223-1.231 1.551-2.001 2.701-2.001 3.313 0 .588.443.836.892.836.35 0 .698-.072 1.055-.295l-.113 1.305a4.336 4.336 0 0 1-1.354.237c-1.306 0-1.795-.977-1.795-1.729 0-.669.244-1.152.489-1.586-.831-.555-1.534-1.177-1.534-2.291 0-1.953 1.4-2.515 2.436-2.515.732 0 1.374.196 1.91.75zm-1.154 1.573a1.403 1.403 0 0 0-1.138-.563c-.583 0-1.222.326-1.222 1.174 0 .705.404 1.104.817 1.432z" style="fill:#231f20;fill-opacity:1;fill-rule:nonzero;stroke:none" transform="matrix(4.46638 0 0 -4.46638 692.64 220.663)"/><path d="M0 0c.526-.293 1.101-.505 1.673-.505.441 0 .996.212.996.869 0 1.128-2.567 2.187-2.567 4.04 0 1.014.572 1.967 2.097 1.967.497 0 1.007-.078 1.496-.214l.139-1.372c-.413.187-.863.34-1.315.34-.714 0-.995-.482-.995-.837 0-1.245 2.561-2.09 2.561-3.994 0-.916-.513-2.044-2.148-2.044-.601 0-1.196.142-1.787.302z" style="fill:#231f20;fill-opacity:1;fill-rule:nonzero;stroke:none" transform="matrix(4.46638 0 0 -4.46638 710.028 213.481)"/><path d="M0 0h1.317v3.457l.016-.025c.376-.599 1.015-.938 1.646-.938 1.411 0 2.001 1.524 2.001 2.913 0 3.207-2.143 3.207-2.723 3.207-.762 0-1.515-.152-2.257-.328Zm1.317 7.228c.327.128.665.235 1.004.235.883 0 1.345-.776 1.345-1.986 0-.729-.293-1.831-1.127-1.831-.717 0-1.222.774-1.222 1.619z" style="fill:#231f20;fill-opacity:1;fill-rule:nonzero;stroke:none" transform="matrix(4.46638 0 0 -4.46638 730.598 232.435)"/><path d="M0 0c-.452-.51-2.011-.484-2.011-1.519 0-.564.44-.706.815-.706.253 0 .5.071.744.178l-.209-1.011c-.292-.036-.694-.105-.866-.105-1.051 0-1.735.562-1.735 1.738C-3.262.831-.069.148-.069 1.301c0 .636-.514.718-.865.718-.63 0-1.242-.213-1.815-.495l.102 1.094c.662.2 1.34.34 2.023.34.832 0 1.872-.246 1.872-1.584v-4.395H0Z" style="fill:#231f20;fill-opacity:1;fill-rule:nonzero;stroke:none" transform="matrix(4.46638 0 0 -4.46638 768.264 207.17)"/><path d="M0 0a4.425 4.425 0 0 0-1.288-.196c-1.496 0-2.443 1.046-2.443 3.172 0 1.55.62 2.948 2.398 2.948a4.24 4.24 0 0 0 1.382-.223l.112-1.268c-.394.212-.81.34-1.224.34-.958 0-1.398-.844-1.352-2.008.038-1.083.498-1.809 1.391-1.809.397 0 .791.114 1.146.326z" style="fill:#231f20;fill-opacity:1;fill-rule:nonzero;stroke:none" transform="matrix(4.46638 0 0 -4.46638 792.107 220.42)"/><path d="M0 0c-.498-.2-1.004-.376-1.542-.376-.845 0-1.494.611-1.494 1.703v.187H.35v.459c0 1.893-1.009 2.691-2.276 2.691-1.628 0-2.425-1.28-2.425-3.065 0-1.789.941-3.056 2.584-3.056.65 0 1.148.082 1.645.222zm-3.036 2.301c.048.764.435 1.366 1.11 1.366.724 0 1.024-.53 1.024-1.366z" style="fill:#231f20;fill-opacity:1;fill-rule:nonzero;stroke:none" transform="matrix(4.46638 0 0 -4.46638 813.307 214.79)"/><path d="M0 0c.527-.293 1.102-.505 1.673-.505.445 0 .997.212.997.869 0 1.128-2.565 2.187-2.565 4.04 0 1.014.573 1.967 2.097 1.967.498 0 1.003-.078 1.495-.214l.138-1.372c-.412.187-.863.34-1.316.34-.714 0-.996-.482-.996-.837 0-1.245 2.569-2.09 2.569-3.994 0-.916-.52-2.044-2.155-2.044-.603 0-1.193.142-1.786.302z" style="fill:#231f20;fill-opacity:1;fill-rule:nonzero;stroke:none" transform="matrix(4.46638 0 0 -4.46638 826.957 213.481)"/><path d="M0 0a4.395 4.395 0 0 0-1.285-.196C-2.78-.196-3.728.85-3.728 2.976c0 1.55.616 2.948 2.394 2.948.474 0 .932-.068 1.384-.223l.112-1.268c-.395.212-.808.34-1.222.34-.959 0-1.399-.844-1.352-2.008.037-1.083.496-1.809 1.39-1.809.392 0 .789.114 1.147.326z" style="fill:#231f20;fill-opacity:1;fill-rule:nonzero;stroke:none" transform="matrix(4.46638 0 0 -4.46638 863.098 220.42)"/><path d="M172.06 206.515h4.003v3.204h-4.002zm.057 6.14h3.916v17.386h-3.916z" style="fill:#231f20;fill-opacity:1;fill-rule:nonzero;stroke:none;stroke-width:2.97759" transform="matrix(1.5 0 0 1.5 608.041 -124.4)"/><path d="M0 0c-.5-.2-1.008-.376-1.543-.376-.843 0-1.495.611-1.495 1.703v.187H.35v.459c0 1.893-1.01 2.691-2.279 2.691-1.624 0-2.424-1.28-2.424-3.065 0-1.789.942-3.056 2.588-3.056.645 0 1.146.082 1.644.222zm-3.038 2.301c.05.764.434 1.366 1.109 1.366.724 0 1.027-.53 1.027-1.366z" style="fill:#231f20;fill-opacity:1;fill-rule:nonzero;stroke:none" transform="matrix(4.46638 0 0 -4.46638 893.632 214.79)"/><path d="m0 0 .018-.024c.347.871.968 1.127 1.748 1.127.986 0 1.841-.457 1.841-1.894v-4.084H2.291v3.712c0 .61-.45.951-.957.951C.449-.212 0-.812 0-2.622v-2.253h-1.316V.964H0Z" style="fill:#231f20;fill-opacity:1;fill-rule:nonzero;stroke:none" transform="matrix(4.46638 0 0 -4.46638 902.626 198.887)"/><path d="M0 0a4.423 4.423 0 0 0-1.287-.196c-1.496 0-2.444 1.046-2.444 3.172 0 1.55.62 2.948 2.395 2.948.47 0 .932-.068 1.385-.223l.11-1.268c-.392.212-.808.34-1.22.34-.962 0-1.403-.844-1.353-2.008.035-1.083.496-1.809 1.389-1.809.396 0 .792.114 1.149.326z" style="fill:#231f20;fill-opacity:1;fill-rule:nonzero;stroke:none" transform="matrix(4.46638 0 0 -4.46638 937.255 220.42)"/><path d="M0 0c-.498-.2-1.006-.376-1.54-.376-.848 0-1.496.611-1.496 1.703v.187H.35v.459c0 1.893-1.009 2.691-2.273 2.691-1.631 0-2.427-1.28-2.427-3.065 0-1.789.939-3.056 2.583-3.056.651 0 1.148.082 1.645.222zm-3.036 2.301c.048.764.432 1.366 1.113 1.366.721 0 1.021-.53 1.021-1.366z" style="fill:#231f20;fill-opacity:1;fill-rule:nonzero;stroke:none" transform="matrix(4.46638 0 0 -4.46638 958.455 214.79)"/><path d="M243.47 206.7h4.222v23.34h-4.223z" style="fill:#231f20;fill-opacity:1;fill-rule:nonzero;stroke:none;stroke-width:2.97759" transform="matrix(1.5 0 0 1.5 608.041 -124.4)"/><path d="m0 0 .017-.024c.348.871.967 1.127 1.75 1.127.988 0 1.845-.457 1.845-1.894v-4.084H2.295v3.712c0 .61-.454.951-.961.951C.452-.212 0-.812 0-2.622v-2.253h-1.312V.964H0Z" style="fill:#231f20;fill-opacity:1;fill-rule:nonzero;stroke:none" transform="matrix(4.46638 0 0 -4.46638 988.94 198.887)"/><path d="M0 0c.441-.223.891-.434 1.354-.434.292 0 .703.153.703.539C2.057 1 .148 1.648.148 3.137c0 .391.15 1.469 1.748 1.469.462 0 .933-.083 1.397-.187l.099-1.199c-.317.165-.854.308-1.211.308-.226 0-.612-.084-.612-.484 0-.75 1.91-1.514 1.91-3.081 0-1.1-1.023-1.477-1.816-1.477-.507 0-1.025.104-1.515.245z" style="fill:#231f20;fill-opacity:1;fill-rule:nonzero;stroke:none" transform="matrix(4.46638 0 0 -4.46638 1007.082 214.532)"/><path d="M0 0v-1.153h-1.185v-2.598c0-.586.11-.986.581-.986.235 0 .47.035.696.106l-.15-1.176a3.036 3.036 0 0 0-1.054-.174c-.903 0-1.39.364-1.39 1.514v3.314h-.659V0h.659v1.01l1.317.386V0Z" style="fill:#231f20;fill-opacity:1;fill-rule:nonzero;stroke:none" transform="matrix(4.46638 0 0 -4.46638 1036.983 194.582)"/><path d="M286.874 206.515h4.005v3.204h-4.005zm.056 6.14h3.916v17.386h-3.916z" style="fill:#231f20;fill-opacity:1;fill-rule:nonzero;stroke:none;stroke-width:2.97759" transform="matrix(1.5 0 0 1.5 608.041 -124.4)"/><path d="M0 0v-1.153h-1.185v-2.598c0-.586.114-.986.582-.986.235 0 .471.035.694.106l-.149-1.176a3.044 3.044 0 0 0-1.054-.174c-.9 0-1.389.364-1.389 1.514v3.314h-.66V0h.66v1.01l1.316.386V0Z" style="fill:#231f20;fill-opacity:1;fill-rule:nonzero;stroke:none" transform="matrix(4.46638 0 0 -4.46638 1059.865 194.582)"/><path d="m0 0-.02.023c-.351-.871-.971-1.128-1.75-1.128-.988 0-1.702.457-1.702 1.891v4.09h1.315V1.089c0-.385.323-.88.821-.88C-.452.209 0 .811 0 1.995v2.881h1.311V-.963H0Z" style="fill:#231f20;fill-opacity:1;fill-rule:nonzero;stroke:none" transform="matrix(4.46638 0 0 -4.46638 1076.58 216.36)"/><path d="M0 0v-1.153h-1.185v-2.598c0-.586.113-.986.581-.986.235 0 .472.035.697.106l-.15-1.176a3.067 3.067 0 0 0-1.056-.174c-.9 0-1.388.364-1.388 1.514v3.314h-.658V0h.658v1.01l1.316.386V0Z" style="fill:#231f20;fill-opacity:1;fill-rule:nonzero;stroke:none" transform="matrix(4.46638 0 0 -4.46638 1097.738 194.582)"/><path d="M0 0c-.495-.2-1.005-.376-1.541-.376-.845 0-1.494.611-1.494 1.703v.187H.349v.459c0 1.893-1.008 2.691-2.274 2.691-1.629 0-2.425-1.28-2.425-3.065 0-1.789.94-3.056 2.587-3.056.649 0 1.146.082 1.641.222zm-3.035 2.301c.05.764.435 1.366 1.11 1.366.724 0 1.028-.53 1.028-1.366z" style="fill:#231f20;fill-opacity:1;fill-rule:nonzero;stroke:none" transform="matrix(4.46638 0 0 -4.46638 1117.282 214.79)"/><path d="M0 0c0-.305-.457-.475-.84-.561-.824-.209-2.36-.312-4.564-.312-2.224 0-3.764.103-4.582.311-.55.126-.823.318-.823.562v2.743H0Zm-12.823-2.427c1.351-.374 3.848-.568 7.419-.568 3.57 0 6.067.194 7.417.568 1.308.364 1.975 1.022 1.975 1.952v5.467h-18.787V-.475c0-.93.667-1.588 1.976-1.952" style="fill:#231f20;fill-opacity:1;fill-rule:nonzero;stroke:none" transform="matrix(4.46638 0 0 -4.46638 766.71 106.024)"/><path d="M0 0h-.265v-2.224h11.169v-4.3H14.89v4.3h8.837V0h-.264z" style="fill:#231f20;fill-opacity:1;fill-rule:nonzero;stroke:none" transform="matrix(4.46638 0 0 -4.46638 690.396 126.67)"/><path d="M0 0c-.666 0-1.005.132-1.005.853V4.31H-4.994V.487c-.002-.534-.003-1.263.571-1.842.586-.585 1.631-.869 3.195-.869H14V0h-.263z" style="fill:#231f20;fill-opacity:1;fill-rule:nonzero;stroke:none" transform="matrix(4.46638 0 0 -4.46638 723.12 162.513)"/><path d="M0 0c.871.636 1.987 1.81 1.987 3.661v1.088c.001.531.004 1.258-.571 1.837-.585.588-1.631.871-3.196.871h-15.227V5.234h14.002c.666 0 1.004-.132 1.004-.858V3.275c0-2.086-1.45-3.01-1.975-3.275H-19.478v-2.222h9.953V-5.31H-17.007v-2.223h14.002c.666 0 1.004-.134 1.004-.856v-4.36H1.987v4.729c.001.533.004 1.263-.571 1.839-.585.586-1.631.871-3.196.871h-3.757v3.088H4.512V0h-.266Z" style="fill:#231f20;fill-opacity:1;fill-rule:nonzero;stroke:none" transform="matrix(4.46638 0 0 -4.46638 542.997 115.507)"/><path d="M0 0c.868.634 1.986 1.807 1.986 3.658v2.905c.002.531.004 1.26-.572 1.838-.585.587-1.63.874-3.195.874H-17.01V7.047h14.004c.665 0 1.007-.129 1.007-.852V3.274c0-2.087-1.452-3.01-1.975-3.274h-15.505v-2.228h9.952v-8.547h3.989v8.547H4.511V0h-.265Z" style="fill:#231f20;fill-opacity:1;fill-rule:nonzero;stroke:none" transform="matrix(4.46638 0 0 -4.46638 994.226 125.227)"/><path d="M0 0v2.225h-5.378V4.55H-9.366V2.225h-5.597V0H-.266z" style="fill:#231f20;fill-opacity:1;fill-rule:nonzero;stroke:none" transform="matrix(4.46638 0 0 -4.46638 407.468 100.653)"/><path d="M0 0V6.621H-3.988V-9.661H0v7.436H3.759V0h-.265Z" style="fill:#231f20;fill-opacity:1;fill-rule:nonzero;stroke:none" transform="matrix(4.46638 0 0 -4.46638 431.826 109.313)"/><path d="M0 0c-.667 0-1.004.132-1.004.853v3.15h-3.987V.568l-.002-.081c-.001-.534-.003-1.263.573-1.842.583-.585 1.631-.869 3.195-.869h15.227V0h-.265z" style="fill:#231f20;fill-opacity:1;fill-rule:nonzero;stroke:none" transform="matrix(4.46638 0 0 -4.46638 373.342 162.513)"/><path d="M0 0c1.778 0 3.019-.986 3.019-2.394 0-1.408-1.241-2.392-3.019-2.392-1.776 0-3.018.984-3.018 2.392S-1.776 0 0 0m7.074-2.394C7.074.061 3.901 2.05 0 2.05c-3.899 0-7.072-1.989-7.072-4.444C-7.072-4.846-3.899-6.84 0-6.84c3.901 0 7.074 1.994 7.074 4.446" style="fill:#231f20;fill-opacity:1;fill-rule:nonzero;stroke:none" transform="matrix(4.46638 0 0 -4.46638 373.722 113.166)"/><path d="M0 0h-.265v-2.225h4.81v-7.01H8.534V6.621H4.545V0Z" style="fill:#231f20;fill-opacity:1;fill-rule:nonzero;stroke:none" transform="matrix(4.46638 0 0 -4.46638 630.233 109.313)"/><path d="M0 0c-.665 0-1.002.132-1.002.853V4.31H-4.991V.487c-.002-.534-.004-1.263.573-1.842.584-.585 1.631-.869 3.194-.869h15.23V0h-.265z" style="fill:#231f20;fill-opacity:1;fill-rule:nonzero;stroke:none" transform="matrix(4.46638 0 0 -4.46638 607.823 162.513)"/><path d="M0 0c1.3-1.783 3.106-3.177 5.261-4.041l.116-.045.111.059 1.684.923.457.249-.47.221C4.352-1.313 2.437 1.293 2.1 4.221h4.508v2.225H1.917v2.325H-2.07V6.446h-4.566V4.221H-2.103c-.335-2.928-2.248-5.534-5.056-6.855l-.471-.221.456-.249 1.686-.923.109-.059.116.045C-3.109-3.177-1.301-1.783 0 0" style="fill:#231f20;fill-opacity:1;fill-rule:nonzero;stroke:none" transform="matrix(4.46638 0 0 -4.46638 606.218 119.507)"/><path d="M0 0v-.264H3.989v4.085h.039c2.538 0 4.555.629 5.889 1.046l.228.071V3.091H5.439V.865H10.145V-.798h3.991v16.463h-3.991V6.907c-1.541-.405-3.792-.863-6.117-.863H-7.108V3.821H0Z" style="fill:#231f20;fill-opacity:1;fill-rule:nonzero;stroke:none" transform="matrix(4.46638 0 0 -4.46638 1050.79 149.705)"/><path d="M0 0h-14.424c-.666 0-1.008.132-1.008.853V4.31h-3.984V.568l-.001-.081c-.004-.534-.004-1.263.574-1.842.58-.585 1.629-.869 3.193-.869H.263V0Z" style="fill:#231f20;fill-opacity:1;fill-rule:nonzero;stroke:none" transform="matrix(4.46638 0 0 -4.46638 1114.609 162.513)"/><path d="M0 0c1.5 0 3.016-.675 3.016-2.178 0-1.499-1.561-2.18-3.016-2.18-1.453 0-3.019.681-3.019 2.18C-3.019-.675-1.504 0 0 0m0-6.409c3.831 0 6.951 1.899 6.951 4.231C6.951.152 3.831 2.05 0 2.05c-3.834 0-6.952-1.898-6.952-4.228 0-2.332 3.118-4.231 6.952-4.231" style="fill:#231f20;fill-opacity:1;fill-rule:nonzero;stroke:none" transform="matrix(4.46638 0 0 -4.46638 1052.79 91.447)"/><path d="M0 0c-.665 0-1.003.132-1.003.853V4.31h-3.988V.487c-.002-.534-.003-1.263.572-1.842.585-.585 1.628-.869 3.193-.869h14.539V0h-.263Z" style="fill:#231f20;fill-opacity:1;fill-rule:nonzero;stroke:none" transform="matrix(4.46638 0 0 -4.46638 839.078 162.513)"/><path d="M0 0c.166.49.251.986.251 1.485 0 .289-.03.584-.085.878h3.156V0Zm-6.337 4.968c1.563 0 2.692-1.464 2.692-3.483 0-2.018-1.129-3.482-2.692-3.482-1.56 0-2.69 1.464-2.69 3.482 0 2.019 1.13 3.483 2.69 3.483m4.862-7.191h4.797v-6.03H7.31V8.028H3.322V4.59H-.895C-2.125 6.101-4.147 7-6.337 7c-3.631 0-6.583-2.471-6.583-5.515 0-3.04 2.952-5.514 6.583-5.514 1.849 0 3.613.658 4.862 1.806" style="fill:#231f20;fill-opacity:1;fill-rule:nonzero;stroke:none" transform="matrix(4.46638 0 0 -4.46638 863.841 115.598)"/></svg>